<?xml version="1.0" standalone="no"?>
<!DOCTYPE svg PUBLIC "-//W3C//DTD SVG 1.1//EN" "http://www.w3.org/Graphics/SVG/1.1/DTD/svg11.dtd" >
<svg xmlns="http://www.w3.org/2000/svg" xmlns:xlink="http://www.w3.org/1999/xlink" version="1.1">
<metadata>
Created by FontForge 20170104 at Fri Jun 30 12:45:30 2017
 By myTaste
</metadata>
<defs>
<font id="untitled-font-13" horiz-adv-x="512" >
  <font-face 
    font-family="untitled-font-13"
    font-weight="400"
    font-stretch="normal"
    units-per-em="512"
    panose-1="2 0 5 9 0 0 0 0 0 0"
    ascent="480"
    descent="-32"
    x-height="320"
    bbox="-1 0 512 512"
    underline-thickness="0"
    underline-position="0"
    unicode-range="U+0061-0079"
  />
<missing-glyph 
 />
    <glyph glyph-name=".notdef" 
 />
    <glyph glyph-name=".notdef" 
 />
    <glyph glyph-name=".null" horiz-adv-x="0" 
 />
    <glyph glyph-name="nonmarkingreturn" 
 />
    <glyph glyph-name="icon-password-hidden" unicode="m" 
d="M256 79q-91 0 -180 84q-30 27 -53 56q-2 3 -7 9.5t-7 9.5l-4 4l-2 3q-6 11 0 22l2 3l4 4q2 3 7 9.5t7 9.5q23 29 53 56q89 84 180 84t180 -84q30 -27 53 -56q2 -3 7 -9.5t7 -9.5l4 -4l2 -3q6 -11 0 -22l-2 -3l-4 -4q-2 -3 -7 -9.5t-7 -9.5q-23 -29 -53 -56
q-89 -84 -180 -84zM54 244q24 -30 48 -52q80 -74 154 -74t154 74q24 22 48 52q4 4 10 12q-6 8 -10 12q-24 30 -48 52q-80 74 -154 74t-154 -74q-24 -22 -48 -52q-4 -4 -10 -12q6 -8 10 -12zM256 158q-40 0 -69 29t-29 69t29 69t69 29t69 -29t29 -69t-29 -69t-69 -29z
M256 197q25 0 42 17t17 42t-17 42t-42 17t-42 -17t-17 -42t17 -42t42 -17z" />
    <glyph glyph-name="icon-youtube" unicode="n" 
d="M312 157v-61q0 -19 -11 -19q-5 0 -13 6v86q7 7 13 7q11 0 11 -19zM409 156v-13h-26v13q0 20 13 20t13 -20zM133 219h31v26h-90v-26h30v-163h29v163zM215 56h26v141h-26v-108q-7 -12 -16 -12q-5 0 -6 6v10v104h-26v-112q0 -14 3 -20q3 -11 16 -11q14 0 29 17v-15zM338 98
v57q0 19 -3 28q-5 16 -20 16q-14 0 -27 -16v62h-25v-189h25v14q13 -16 27 -16q16 0 20 16q3 9 3 28zM434 101v4h-26v-18q-3 -10 -12 -10q-13 0 -13 20v25h51v29q0 23 -7 33q-12 15 -31 15q-20 0 -30 -15q-8 -9 -8 -33v-49q0 -23 8 -33q12 -15 31 -15q21 0 31 15q5 8 6 16v16
zM261 362v60q0 20 -13 20q-12 0 -12 -20v-60q0 -20 12 -20q13 0 13 20zM466 147q0 -68 -7 -100q-5 -17 -17.5 -28.5t-28.5 -12.5q-53 -6 -159 -6t-158 6q-16 1 -29 12.5t-17 28.5q-7 32 -7 100t7 100q5 17 17.5 29t28.5 13q52 6 158 6t159 -6q17 -2 29.5 -13.5t16.5 -28.5
q7 -32 7 -100zM181 512l-19 -75l-21 75h-30q12 -36 19 -53q11 -33 17 -61v-77h29v77l34 114h-29zM287 417v-50q0 -23 -8 -34q-10 -14 -31 -14q-19 0 -30 14q-8 13 -8 34v50q0 22 8 33q12 15 30 15q20 0 31 -15q8 -11 8 -33zM382 463h-26v-109q-7 -12 -16 -12q-4 0 -6 6v10
v105h-26v-112q0 -14 2 -22q4 -10 17 -10q15 0 29 17v-15h26v142z" />
    <glyph glyph-name="icon-wishlist" unicode="o" 
d="M283 445q39 41 94.5 41t95.5 -41q39 -42 39 -101t-39 -100l-199 -211q-9 -9 -18 -7q-9 -2 -18 7l-199 211q-39 41 -39 100t39 101q40 41 95.5 41t94.5 -41l27 -28zM438 280q25 27 25 64.5t-25 63.5t-60.5 26t-60.5 -26l-44 -46q-7 -8 -17 -8t-17 8l-44 46
q-25 26 -60.5 26t-60.5 -26t-25 -63.5t25 -64.5l182 -193zM256 87z" />
    <glyph glyph-name="icon-whatsapp" unicode="p" 
d="M322 234q4 0 31.5 -14.5t29.5 -17.5v-5q0 -12 -5 -25q-6 -13 -23.5 -21.5t-33.5 -8.5q-20 0 -62 21q-52 24 -104 99q-23 35 -23 63v3q1 28 24 51q7 7 17 7q2 0 6 -0.5t6 -0.5q10 0 14 -11q19 -48 19 -53q0 -6 -11 -18t-11 -16q0 -3 1 -5q11 -24 34 -45q15 -14 49 -33
q4 -2 7 -2q5 0 18 16t17 16zM255 61q85 0 145 60t60 145t-60 145t-145 60t-145 -60t-60 -145q0 -65 39 -120l-25 -76l79 25q51 -34 112 -34zM255 512q102 0 174.5 -72t72.5 -174t-72.5 -174t-174.5 -72q-63 0 -119 30l-136 -43l44 132q-35 58 -35 127q0 102 72.5 174
t173.5 72z" />
    <glyph glyph-name="icon-twitter" unicode="q" 
d="M491 418q-26 -11 -58 -16q33 20 45 56q-30 -18 -64 -24q-31 31 -74 31q-42 0 -71.5 -29.5t-29.5 -70.5q0 -13 3 -23q-127 6 -208 105q-13 -24 -13 -51q0 -55 44 -84q-24 1 -45 13v-1q0 -36 23 -64t58 -35q-13 -3 -27 -3q-13 0 -19 1q10 -30 35.5 -49.5t58.5 -20.5
q-54 -43 -125 -43q-8 0 -24 2q71 -46 155 -46q130 0 208 89t78 198v13q31 23 50 52z" />
    <glyph glyph-name="icon-tick" unicode="r" 
d="M479 445q-9 10 -19 0l-275 -303l-132 132q-11 10 -20 1l-23 -23q-10 -10 0 -20l165 -165q9 -11 19 0l309 335q9 10 -1 20z" />
    <glyph glyph-name="icon-search" unicode="s" 
d="M360 195l142 -142q10 -12 0 -20l-23 -23q-10 -10 -20 0l-142 142q-52 -38 -118 -38q-83 0 -141 58t-58 141t58 141t141 58t141 -58t58 -141q0 -66 -38 -118zM199 171q59 0 100.5 41.5t41.5 100.5t-41.5 100.5t-100.5 41.5t-100.5 -41.5t-41.5 -100.5t41.5 -100.5
t100.5 -41.5z" />
    <glyph glyph-name="icon-plus" unicode="t" 
d="M224 288h-208q-16 0 -16 -16v-32q0 -16 16 -16h208v-208q0 -16 16 -16h32q16 0 16 16v208h208q16 0 16 16v32q0 16 -16 16h-208v208q0 16 -16 16h-32q-16 0 -16 -16v-208z" />
    <glyph glyph-name="icon-password-visible" unicode="u" 
d="M102 202q5 -5 8 -7l-28 -28l-6 6q-30 27 -53 56q-3 5 -14 18l-6 8q-6 11 0 22l2 3l4 4q2 3 7 9.5t7 9.5q23 29 53 56q90 84 180 84q39 0 83 -18l-30 -31q-30 10 -53 10q-74 0 -154 -74q-24 -22 -48 -52q-4 -4 -10 -12q6 -8 10 -12q24 -30 48 -52zM509 277q6 -11 0 -22
l-6 -8q-11 -13 -14 -18q-23 -29 -53 -56q-89 -84 -180 -84q-36 0 -69 12l31 32q22 -5 38 -5q75 0 154 74q24 22 48 52q4 4 10 12q-6 8 -10 12q-18 24 -45 49l27 28q32 -30 49 -52q2 -3 7 -9.5t7 -9.5l4 -4zM414 443l29 -29l-335 -335l-29 29z" />
    <glyph glyph-name="icon-phone" unicode="v" 
d="M369 190q-16 -14 -28 -42l-7 -19l-20 6q-42 11 -109 74.5t-76 94.5l-6 20l19 8q26 11 41 27q-5 22 -21.5 45.5t-35.5 36.5q-21 -6 -44 -27.5t-35 -49.5q7 -25 36 -69t68 -86q108 -119 224 -155q27 12 49 35.5t27 45.5q-9 16 -34.5 33.5t-47.5 21.5zM308 187q15 29 41 47
l6 4h8q37 -2 80 -31.5t54 -59.5l2 -6l-1 -6q-5 -37 -37.5 -75t-76.5 -52l-7 -3l-7 2q-118 33 -237 153t-133 202l-1 6l2 5q15 45 53 78.5t74 37.5h8l6 -3q32 -19 58.5 -55.5t30.5 -74.5l1 -9l-5 -7q-14 -21 -42 -39q27 -33 46 -51q44 -46 77 -63z" />
    <glyph glyph-name="icon-alert" unicode="a" 
d="M242 439q6 9 14 9t14 -9l228 -366q6 -9 2.5 -15.5t-13.5 -6.5h-462q-11 0 -14 6.5t3 15.5zM230 294v-102q0 -13 13 -13h26q13 0 13 13v102q0 13 -13 13h-26q-13 0 -13 -13zM230 141v-26q0 -13 13 -13h26q13 0 13 13v26q0 13 -13 13h-26q-13 0 -13 -13z" />
    <glyph glyph-name="icon-arrow-left" unicode="b" 
d="M498 284q14 0 14 -14v-28q0 -14 -14 -14h-384l175 -175q9 -11 0 -20l-23 -23q-10 -10 -20 0l-236 236q-10 10 0 20l236 236q10 10 20 0l23 -23q9 -9 0 -20l-175 -175h384z" />
    <glyph glyph-name="icon-arrow-right" unicode="c" 
d="M14 284q-14 0 -14 -14v-28q0 -14 14 -14h384l-175 -175q-9 -11 0 -20l23 -23q10 -10 20 0l236 236q10 10 0 20l-236 236q-10 10 -20 0l-23 -23q-9 -9 0 -20l175 -175h-384z" />
    <glyph glyph-name="icon-chevron-down" unicode="d" 
d="M53 388q-11 11 -20 0l-23 -23q-11 -9 0 -19l236 -236q10 -10 20 0l236 236q10 9 0 19l-23 23q-9 11 -20 0l-203 -203z" />
    <glyph glyph-name="icon-chevron-up" unicode="e" 
d="M53 110q-11 -10 -20 -1l-23 23q-11 11 0 20l236 236q10 10 20 0l236 -236q10 -8 0 -20l-23 -23q-9 -9 -20 1l-203 203z" />
    <glyph glyph-name="icon-close" unicode="f" 
d="M213 256l-203 -203q-10 -12 0 -20l23 -23q9 -9 20 0l203 203l203 -203q11 -9 20 0l23 23q10 8 0 20l-203 203l203 203q10 12 0 20l-23 23q-9 9 -20 0l-203 -203l-203 203q-11 9 -20 0l-23 -23q-10 -8 0 -20z" />
    <glyph glyph-name="icon-facebook" unicode="g" 
d="M380 508q-16 4 -68 4t-83 -30.5t-31 -86.5v-65h-76v-88h76v-226h92v226h75l12 88h-87v57q0 21 9 32t34 11h47v78z" />
    <glyph glyph-name="icon-info" unicode="h" 
d="M256 0q-106 0 -181 75t-75 181t75 181t181 75t181 -75t75 -181t-75 -181t-181 -75zM256 57q82 0 140.5 58.5t58.5 140.5t-58.5 140.5t-140.5 58.5t-140.5 -58.5t-58.5 -140.5t58.5 -140.5t140.5 -58.5zM228 270q0 14 14 14h28q14 0 14 -14v-114q0 -5 -4 -9.5t-10 -4.5
h-28q-14 0 -14 14v114zM228 355q0 15 14 15h28q14 0 14 -15v-28q0 -14 -14 -14h-28q-14 0 -14 14v28z" />
    <glyph glyph-name="icon-login" unicode="i" 
d="M256 279q38 0 65.5 27.5t27.5 65.5q0 39 -27.5 66t-65.5 27t-65.5 -27t-27.5 -66q0 -38 27.5 -65.5t65.5 -27.5zM256 233q-58 0 -99 40.5t-41 98.5t41 99t99 41t99 -41t41 -99t-41 -98.5t-99 -40.5zM497 39q3 -10 -7 -13q-12 -3 -24 -7q-10 -2 -12 4q-20 56 -72 86.5
t-126 30.5q-72 0 -122.5 -28.5t-72.5 -81.5q-1 -4 -6.5 -8t-7.5 -3q-20 7 -23 8q-5 1 -7.5 5.5t-1.5 7.5q25 70 89 108t152 38t152 -38.5t89 -108.5z" />
    <glyph glyph-name="icon-menu" unicode="j" 
d="M0 437q0 11 11 11h490q11 0 11 -11v-21q0 -11 -11 -11h-490q-11 0 -11 11v21zM0 267q0 10 11 10h490q11 0 11 -10v-22q0 -10 -11 -10h-490q-11 0 -11 10v22zM0 96q0 11 11 11h490q11 0 11 -11v-21q0 -11 -11 -11h-490q-11 0 -11 11v21z" />
    <glyph glyph-name="icon-minus" unicode="k" 
d="M16 288h480q16 0 16 -16v-32q0 -16 -16 -16h-480q-16 0 -16 16v32q0 16 16 16z" />
    <glyph glyph-name="icon-notification" unicode="l" 
d="M124 140q7 33 11 61q2 15 7 49q12 102 33.5 135.5t77.5 33.5q57 0 79.5 -34.5t37.5 -137.5q3 -26 6 -47q8 -45 12 -60h-264zM256 47q-22 0 -40 13t-26 33h132q-8 -20 -26 -33t-40 -13zM465 140h-29q-9 34 -14 67q-1 6 -2.5 18.5t-3.5 27.5q-13 100 -36 142
q-32 60 -101 69v25q0 10 -6.5 16.5t-16.5 6.5t-16.5 -6.5t-6.5 -16.5v-25q-72 -7 -105 -68q-21 -41 -33 -140q-3 -31 -6 -49q-7 -42 -13 -67h-29q-10 0 -17 -7t-7 -17t7 -16.5t17 -6.5h95q8 -40 40 -66.5t74 -26.5t74 26.5t40 66.5h95q10 0 17 6.5t7 16.5t-7 17t-17 7z" />
    <glyph glyph-name="icon-bullet" unicode="w" 
d="M320 256q0 -26 -19 -45t-45 -19t-45 19t-19 45t19 45t45 19t45 -19t19 -45z" />
    <glyph glyph-name="large-chevron-right" unicode="x" 
d="M112 48q-6 -6 0 -10l32 -33q6 -6 10 0l246 246q5 5 0 10l-246 246q-4 6 -10 0l-32 -33q-6 -4 0 -10l208 -208z" />
    <glyph glyph-name="large-chevron-left" unicode="y" 
d="M400 48q6 -6 0 -10l-32 -33q-6 -6 -10 0l-246 246q-5 5 0 10l246 246q4 6 10 0l32 -33q6 -4 0 -10l-208 -208z" />
  </font>
</defs>
</svg>
